# xmcd CD database file
#
# Track frame offsets:
#	150
#	11035
#	23750
#	34587
#	51127
#	62715
#	80267
#	91745
#	107570
#	122980
#	134795
#	156397
#	171957
#	186137
#	201475
#	204925
#	220377
#	236617
#	255215
#	279295
#
# Disc length: 3990 seconds
#
# Revision: 2
# Processed by: cddbd v1.5.2PL0 Copyright (c) Steve Scherf et al.
# Submitted via: CDex 1.51
#
DISCID=170f9414
DTITLE=Rory Block - Best Blues And Originals
DYEAR=1900
DGENRE=Blues
TTITLE0=Walkin' Blues
TTITLE1=Travelin' Blues
TTITLE2=Got To Have You Be My Man
TTITLE3=The Water Is Wide
TTITLE4=Crossroad Blues
TTITLE5=Ain't No Way To Do
TTITLE6=Catastrophe Rag
TTITLE7=Lovin' Fool
TTITLE8=Sit Down On The Banks
TTITLE9=God's Gift To Women
TTITLE10=The Golden Vanity
TTITLE11=El Vuelo Del Alma
TTITLE12=Future Blues
TTITLE13=M and O Blues
TTITLE14=Foreign Lander
TTITLE15=Moon's Goin' Down
TTITLE16=Send The Man Back Home
TTITLE17=Lovin' Whiskey
TTITLE18=Gypsie Boy
TTITLE19=Goin' Back To The Country
EXTD=
EXTT0=
EXTT1=
EXTT2=
EXTT3=
EXTT4=
EXTT5=
EXTT6=
EXTT7=
EXTT8=
EXTT9=
EXTT10=
EXTT11=
EXTT12=
EXTT13=
EXTT14=
EXTT15=
EXTT16=
EXTT17=
EXTT18=
EXTT19=
PLAYORDER=
